<svg width="45" height="55" viewBox="0 0 45 55" fill="none" xmlns="http://www.w3.org/2000/svg">
<path d="M22.5 12.5V20L33.75 10L22.5 0V7.5C10.0687 7.5 0 16.45 0 27.5C0 31.425 1.29375 35.075 3.4875 38.15L7.59375 34.5C6.32812 32.425 5.625 30.025 5.625 27.5C5.625 19.225 13.1906 12.5 22.5 12.5ZM41.5125 16.85L37.4062 20.5C38.6437 22.6 39.375 24.975 39.375 27.5C39.375 35.775 31.8094 42.5 22.5 42.5V35L11.25 45L22.5 55V47.5C34.9313 47.5 45 38.55 45 27.5C45 23.575 43.7062 19.925 41.5125 16.85Z" fill="white"/>
</svg>
