<svg width="340" height="458" viewBox="0 0 340 458" fill="none" xmlns="http://www.w3.org/2000/svg">
<mask id="mask0_128_6" style="mask-type:alpha" maskUnits="userSpaceOnUse" x="0" y="0" width="340" height="458">
<rect width="340" height="458" fill="#D9D9D9"/>
</mask>
<g mask="url(#mask0_128_6)">
<path d="M55.9827 62.9168C38.4012 133.432 78.9975 309.227 -28.0926 282.527C-213.978 288.069 -223.736 83.4048 -206.154 12.8892C-188.573 -57.6264 10.7761 -167.361 173.087 -92.6927C322.398 41.2889 73.5642 -7.59876 55.9827 62.9168Z" fill="#FEFFFC" fill-opacity="0.28"/>
<path d="M133.893 152.797C95.2005 243.95 85.0218 477.586 -16.573 434.461C-208.17 427.66 -157.99 158.496 -119.298 67.3425C-80.6057 -23.811 155.373 -152.644 299.304 -42.4287C412.516 144.595 172.585 61.6431 133.893 152.797Z" fill="#FEFFFC" fill-opacity="0.4"/>
</g>
</svg>
