<svg width="552" height="588" viewBox="0 0 552 588" fill="none" xmlns="http://www.w3.org/2000/svg">
<mask id="mask0_129_3" style="mask-type:alpha" maskUnits="userSpaceOnUse" x="0" y="0" width="552" height="588">
<rect width="552" height="588" fill="#D9D9D9"/>
</mask>
<g mask="url(#mask0_129_3)">
<path d="M417.038 161.892C290.143 74.6796 -50.1159 -31.5498 30.1471 -148.333C72.4282 -398.18 457.942 -225.111 584.837 -137.899C711.732 -50.6863 860.493 311.542 674.885 457.478C382.034 532.41 543.933 249.104 417.038 161.892Z" fill="#FEFFFC" fill-opacity="0.4"/>
<path d="M473.21 285.672C333.252 189.482 -47.4543 80.2023 48.3731 -59.2275C106.851 -352.028 535.953 -166.82 675.911 -70.6298C815.869 25.5606 968.903 441.142 752.574 619.001C417.846 718.713 613.168 381.862 473.21 285.672Z" fill="#FEFFFC" fill-opacity="0.4"/>
</g>
</svg>
