<svg width="340" height="304" viewBox="0 0 340 304" fill="none" xmlns="http://www.w3.org/2000/svg">
<mask id="mask0_110_39" style="mask-type:alpha" maskUnits="userSpaceOnUse" x="0" y="0" width="340" height="304">
<rect width="340" height="304" fill="#D9D9D9"/>
</mask>
<g mask="url(#mask0_110_39)">
<path d="M373.85 274.095C373.85 331.423 166.493 382 96.4169 382C-30.468 250.299 197.598 219.826 197.598 162.498C219.222 25.0525 365.38 7 435.457 7C505.533 7 373.85 216.767 373.85 274.095Z" fill="#FEFFFC" fill-opacity="0.22"/>
<path d="M373.85 322.138C373.85 376.256 166.493 424 96.4169 424C-30.468 299.674 197.598 270.908 197.598 216.79C219.222 87.0416 365.38 70 435.457 70C505.533 70 373.85 268.02 373.85 322.138Z" fill="#FEFFFC" fill-opacity="0.22"/>
</g>
</svg>
