<svg width="540" height="523" viewBox="0 0 540 523" fill="none" xmlns="http://www.w3.org/2000/svg">
<mask id="mask0_110_76" style="mask-type:alpha" maskUnits="userSpaceOnUse" x="106" y="112" width="434" height="411">
<rect x="106" y="112" width="434" height="411" fill="#D9D9D9"/>
</mask>
<g mask="url(#mask0_110_76)">
<path d="M374.981 435.328C461.083 307.676 564.339 -33.497 681.819 45.7439C932.025 85.843 762.327 472.853 676.225 600.504C590.123 728.155 229.207 880.071 81.6568 695.744C4.17178 403.558 288.88 562.979 374.981 435.328Z" fill="#FEFFFC" fill-opacity="0.4"/>
<path d="M642.532 542.847C523.5 663.975 349.772 1019.92 229.1 901.338C-49.0971 792.905 207.81 402.482 326.842 281.354C445.875 160.226 881.717 81.6816 1019.31 325.609C1059.38 672.567 761.565 421.719 642.532 542.847Z" fill="#FEFFFC" fill-opacity="0.4"/>
</g>
</svg>
