<svg width="59" height="59" viewBox="0 0 59 59" fill="none" xmlns="http://www.w3.org/2000/svg">
<line x1="58" y1="59" x2="58" stroke="black"/>
<path d="M35 22H32.5V17.7143C32.5 11.8 26.9 7 20 7C13.1 7 7.5 11.8 7.5 17.7143V22H5C2.25 22 0 23.9286 0 26.2857V47.7143C0 50.0714 2.25 52 5 52H35C37.75 52 40 50.0714 40 47.7143V26.2857C40 23.9286 37.75 22 35 22ZM20 41.2857C17.25 41.2857 15 39.3571 15 37C15 34.6429 17.25 32.7143 20 32.7143C22.75 32.7143 25 34.6429 25 37C25 39.3571 22.75 41.2857 20 41.2857ZM27.75 22H12.25V17.7143C12.25 14.05 15.725 11.0714 20 11.0714C24.275 11.0714 27.75 14.05 27.75 17.7143V22Z" fill="#9F9F9F"/>
</svg>
