<svg width="46" height="46" viewBox="0 0 46 46" fill="none" xmlns="http://www.w3.org/2000/svg">
<path d="M32.4708 28.542H30.4382L29.7178 27.8473C32.2392 24.9142 33.7573 21.1063 33.7573 16.9639C33.7573 7.72722 26.2701 0.240082 17.0334 0.240082C7.79671 0.240082 0.30957 7.72722 0.30957 16.9639C0.30957 26.2006 7.79671 33.6878 17.0334 33.6878C21.1758 33.6878 24.9837 32.1698 27.9168 29.6483L28.6115 30.3687V32.4013L41.476 45.2401L45.3096 41.4065L32.4708 28.542ZM17.0334 28.542C10.6269 28.542 5.45537 23.3704 5.45537 16.9639C5.45537 10.5574 10.6269 5.38588 17.0334 5.38588C23.4399 5.38588 28.6115 10.5574 28.6115 16.9639C28.6115 23.3704 23.4399 28.542 17.0334 28.542Z" fill="#9F9F9F"/>
<path d="M30.0911 28.9019L30.2364 29.042H30.4382H32.2634L44.6028 41.4061L41.4756 44.5333L29.1115 32.1939V30.3687V30.1669L28.9714 30.0217L28.2767 29.3012L27.9489 28.9613L27.5908 29.2692C24.7448 31.7157 21.0515 33.1878 17.0334 33.1878C8.07285 33.1878 0.80957 25.9245 0.80957 16.9639C0.80957 8.00336 8.07285 0.740082 17.0334 0.740082C25.994 0.740082 33.2573 8.00336 33.2573 16.9639C33.2573 20.982 31.7852 24.6753 29.3386 27.5213L29.0308 27.8794L29.3707 28.2072L30.0911 28.9019ZM4.95537 16.9639C4.95537 23.6466 10.3508 29.042 17.0334 29.042C23.7161 29.042 29.1115 23.6466 29.1115 16.9639C29.1115 10.2813 23.7161 4.88588 17.0334 4.88588C10.3508 4.88588 4.95537 10.2813 4.95537 16.9639Z" stroke="black" stroke-opacity="0.3"/>
</svg>
